<svg viewBox="0 0 100 125" xmlns="http://www.w3.org/2000/svg">
    <style type="text/css">
        .st0
        {
            fill-rule: evenodd;
            clip-rule: evenodd;
        }
    </style>
    <path class="st0"
          d="M82.1 28H16.9c-4.2 0-7.5-3.4-7.5-7.5s3.4-7.5 7.5-7.5h65.1c4.2 0 7.5 3.4 7.5 7.5S86.2 28 82.1 28zM16.9 43H62c4.2 0 7.5 3.4 7.5 7.5S66.2 58 62 58H16.9c-4.2 0-7.5-3.4-7.5-7.5S12.8 43 16.9 43zM16.9 73h65.1c4.2 0 7.5 3.4 7.5 7.5s-3.4 7.5-7.5 7.5H16.9c-4.2 0-7.5-3.4-7.5-7.5S12.8 73 16.9 73z"/>
</svg>
